<svg version="1.1" id="Layer_1" xmlns="http://www.w3.org/2000/svg" xmlns:xlink="http://www.w3.org/1999/xlink" x="0px" y="0px"
	 width="100%" viewBox="0 0 512 512" enable-background="new 0 0 512 512" xml:space="preserve">
<path fill="#000000" opacity="1.000000" stroke="none" 
	d="
M282.000000,513.000000 
	C188.022812,513.000000 94.545624,513.000000 1.034216,513.000000 
	C1.034216,342.397797 1.034216,171.795563 1.034216,1.096670 
	C171.560532,1.096670 342.121155,1.096670 512.840881,1.096670 
	C512.840881,171.666550 512.840881,342.333252 512.840881,513.000000 
	C436.128876,513.000000 359.314423,513.000000 282.000000,513.000000 
M114.515190,290.015381 
	C122.353149,303.185791 129.697845,316.682251 138.139374,329.453735 
	C152.442520,351.093384 167.227692,372.424072 182.203888,393.606354 
	C196.250824,413.474274 210.795868,432.990295 225.146210,452.643250 
	C230.730362,460.290771 235.881699,468.331818 242.133453,475.394012 
	C249.320206,483.512451 259.629578,483.271759 267.075562,475.245026 
	C270.927368,471.092712 273.761261,466.003876 277.121796,461.386749 
	C294.997437,436.826752 313.140259,412.456787 330.720032,387.687012 
	C351.588959,358.282867 372.712585,329.016144 392.366241,298.805359 
	C411.071259,270.052826 425.176025,239.112198 429.127747,204.341156 
	C430.941589,188.381622 430.604645,172.505707 427.761902,156.834579 
	C424.461700,138.641479 418.178802,121.403481 408.794891,105.286621 
	C396.772125,84.637459 381.131500,67.313423 362.084473,53.074158 
	C348.593842,42.988777 333.834137,35.005081 317.900757,29.511889 
	C300.713074,23.586248 283.268921,18.390285 264.784637,19.062433 
	C256.740204,19.354958 248.719925,20.321423 240.689743,20.994476 
	C223.892197,22.402369 207.428787,25.295568 191.392395,30.760757 
	C168.546570,38.546608 148.626816,51.128815 131.237091,67.549095 
	C124.133842,74.256355 118.392227,82.453880 112.331871,90.208443 
	C93.532471,114.263344 84.203705,142.109268 82.328453,172.129807 
	C81.443100,186.303238 82.646652,200.966049 85.363823,214.928375 
	C90.496033,241.300552 100.869377,265.976654 114.515190,290.015381 
z"/>
<path fill="#2563EB" opacity="1.000000" stroke="none" 
	d="
M114.296143,289.709351 
	C100.869377,265.976654 90.496033,241.300552 85.363823,214.928375 
	C82.646652,200.966049 81.443100,186.303238 82.328453,172.129807 
	C84.203705,142.109268 93.532471,114.263344 112.331871,90.208443 
	C118.392227,82.453880 124.133842,74.256355 131.237091,67.549095 
	C148.626816,51.128815 168.546570,38.546608 191.392395,30.760757 
	C207.428787,25.295568 223.892197,22.402369 240.689743,20.994476 
	C248.719925,20.321423 256.740204,19.354958 264.784637,19.062433 
	C283.268921,18.390285 300.713074,23.586248 317.900757,29.511889 
	C333.834137,35.005081 348.593842,42.988777 362.084473,53.074158 
	C381.131500,67.313423 396.772125,84.637459 408.794891,105.286621 
	C418.178802,121.403481 424.461700,138.641479 427.761902,156.834579 
	C430.604645,172.505707 430.941589,188.381622 429.127747,204.341156 
	C425.176025,239.112198 411.071259,270.052826 392.366241,298.805359 
	C372.712585,329.016144 351.588959,358.282867 330.720032,387.687012 
	C313.140259,412.456787 294.997437,436.826752 277.121796,461.386749 
	C273.761261,466.003876 270.927368,471.092712 267.075562,475.245026 
	C259.629578,483.271759 249.320206,483.512451 242.133453,475.394012 
	C235.881699,468.331818 230.730362,460.290771 225.146210,452.643250 
	C210.795868,432.990295 196.250824,413.474274 182.203888,393.606354 
	C167.227692,372.424072 152.442520,351.093384 138.139374,329.453735 
	C129.697845,316.682251 122.353149,303.185791 114.296143,289.709351 
M120.078499,202.100769 
	C121.387901,209.146103 122.372055,216.270691 124.065697,223.222412 
	C129.912521,247.221359 141.507599,268.125397 158.523575,286.044647 
	C167.637558,295.642426 177.641327,304.115601 189.211868,310.611267 
	C205.737411,319.888672 223.421219,326.135773 242.259140,327.829010 
	C263.102264,329.702484 283.755402,327.010040 303.354767,319.675323 
	C326.151337,311.144104 345.623169,297.621124 361.180298,278.472046 
	C380.482391,254.713348 389.657410,227.362106 390.788300,197.245804 
	C391.147797,187.672607 389.346527,177.956741 387.950867,168.391266 
	C384.483826,144.628983 374.028168,123.906075 358.365997,106.051048 
	C339.843018,84.934631 316.585480,70.952469 289.270844,64.157959 
	C272.212677,59.914749 254.770905,58.141918 237.386917,61.190990 
	C218.764923,64.457199 200.777328,70.006462 184.356049,79.898369 
	C157.574524,96.031136 139.154541,118.956947 127.915596,147.973648 
	C121.264465,165.145508 119.332329,182.940445 120.078499,202.100769 
z"/>
<path fill="#000000" opacity="1.000000" stroke="none" 
	d="
M120.045822,201.631348 
	C119.332329,182.940445 121.264465,165.145508 127.915596,147.973648 
	C139.154541,118.956947 157.574524,96.031136 184.356049,79.898369 
	C200.777328,70.006462 218.764923,64.457199 237.386917,61.190990 
	C254.770905,58.141918 272.212677,59.914749 289.270844,64.157959 
	C316.585480,70.952469 339.843018,84.934631 358.365997,106.051048 
	C374.028168,123.906075 384.483826,144.628983 387.950867,168.391266 
	C389.346527,177.956741 391.147797,187.672607 390.788300,197.245804 
	C389.657410,227.362106 380.482391,254.713348 361.180298,278.472046 
	C345.623169,297.621124 326.151337,311.144104 303.354767,319.675323 
	C283.755402,327.010040 263.102264,329.702484 242.259140,327.829010 
	C223.421219,326.135773 205.737411,319.888672 189.211868,310.611267 
	C177.641327,304.115601 167.637558,295.642426 158.523575,286.044647 
	C141.507599,268.125397 129.912521,247.221359 124.065697,223.222412 
	C122.372055,216.270691 121.387901,209.146103 120.045822,201.631348 
M347.075073,252.182785 
	C348.624481,255.444946 351.678406,255.780945 354.255280,254.660599 
	C356.190979,253.819016 358.290863,251.570923 358.782928,249.571289 
	C359.752350,245.632126 359.990387,241.426361 359.938629,237.338379 
	C359.768494,223.905014 359.306854,210.475586 359.015259,197.043381 
	C358.920776,192.692017 358.982788,188.336624 359.013580,183.983353 
	C359.044647,179.596893 355.924652,177.865311 352.501221,177.152130 
	C349.542358,176.535690 346.164886,180.670563 346.032593,184.572311 
	C345.896362,188.589264 345.997681,192.614304 345.996613,196.635803 
	C345.995544,200.714554 345.996399,204.793304 345.996399,208.721344 
	C285.257843,208.721344 225.334854,208.721344 165.000015,208.721344 
	C165.000015,206.651901 164.972214,204.855621 165.004288,203.060440 
	C165.330597,184.796936 165.729523,166.534332 165.943939,148.269562 
	C165.984055,144.851746 165.871140,141.218475 164.740051,138.076614 
	C164.001373,136.024811 161.296051,133.358978 159.475281,133.361740 
	C157.319305,133.364990 154.687347,135.570831 153.171005,137.526886 
	C152.035065,138.992249 152.014740,141.578934 152.053467,143.656006 
	C152.273636,155.463669 152.914871,167.268143 152.919189,179.073883 
	C152.923431,190.652420 152.217667,202.229401 152.045441,213.810364 
	C151.882339,224.778427 151.959320,235.751221 152.059036,246.720749 
	C152.073395,248.298416 152.313293,250.416275 153.317047,251.323532 
	C155.100311,252.935318 157.658859,254.890045 159.686493,254.682541 
	C161.595871,254.487152 164.668854,251.763733 164.760910,250.021988 
	C165.261795,240.545029 164.998962,231.027725 164.998962,221.812500 
	C225.381332,221.812500 285.528870,221.812500 345.922821,221.812500 
	C345.922821,225.760712 346.503235,229.035568 345.804718,232.010117 
	C344.241821,238.665802 344.816742,245.018127 347.075073,252.182785 
M333.000000,187.475189 
	C332.856445,183.344666 333.327026,179.078308 332.449249,175.110214 
	C330.206116,164.969772 322.060394,160.205536 311.606537,160.095749 
	C284.486816,159.810959 257.362122,159.997452 230.239395,160.009094 
	C228.958450,160.009644 227.677582,160.137711 226.317703,160.210632 
	C226.317703,172.591721 226.317703,184.630234 226.317703,196.680145 
	C261.981171,196.680145 297.325989,196.680145 333.000000,196.680145 
	C333.000000,193.731476 333.000000,191.093506 333.000000,187.475189 
M188.597641,159.999023 
	C179.712143,160.969421 174.583740,168.640533 174.841980,177.184082 
	C175.143341,187.154373 182.155182,194.416031 192.124451,195.826187 
	C200.427460,197.000656 209.222305,190.009995 210.770081,181.235199 
	C212.106934,173.656204 209.077423,167.409943 203.116425,162.627884 
	C199.044479,159.361267 194.537964,158.069183 188.597641,159.999023 
z"/>
<path fill="#2563EB" opacity="1.000000" stroke="none" 
	d="
M347.034424,251.769867 
	C344.816742,245.018127 344.241821,238.665802 345.804718,232.010117 
	C346.503235,229.035568 345.922821,225.760712 345.922821,221.812500 
	C285.528870,221.812500 225.381332,221.812500 164.998962,221.812500 
	C164.998962,231.027725 165.261795,240.545029 164.760910,250.021988 
	C164.668854,251.763733 161.595871,254.487152 159.686493,254.682541 
	C157.658859,254.890045 155.100311,252.935318 153.317047,251.323532 
	C152.313293,250.416275 152.073395,248.298416 152.059036,246.720749 
	C151.959320,235.751221 151.882339,224.778427 152.045441,213.810364 
	C152.217667,202.229401 152.923431,190.652420 152.919189,179.073883 
	C152.914871,167.268143 152.273636,155.463669 152.053467,143.656006 
	C152.014740,141.578934 152.035065,138.992249 153.171005,137.526886 
	C154.687347,135.570831 157.319305,133.364990 159.475281,133.361740 
	C161.296051,133.358978 164.001373,136.024811 164.740051,138.076614 
	C165.871140,141.218475 165.984055,144.851746 165.943939,148.269562 
	C165.729523,166.534332 165.330597,184.796936 165.004288,203.060440 
	C164.972214,204.855621 165.000015,206.651901 165.000015,208.721344 
	C225.334854,208.721344 285.257843,208.721344 345.996399,208.721344 
	C345.996399,204.793304 345.995544,200.714554 345.996613,196.635803 
	C345.997681,192.614304 345.896362,188.589264 346.032593,184.572311 
	C346.164886,180.670563 349.542358,176.535690 352.501221,177.152130 
	C355.924652,177.865311 359.044647,179.596893 359.013580,183.983353 
	C358.982788,188.336624 358.920776,192.692017 359.015259,197.043381 
	C359.306854,210.475586 359.768494,223.905014 359.938629,237.338379 
	C359.990387,241.426361 359.752350,245.632126 358.782928,249.571289 
	C358.290863,251.570923 356.190979,253.819016 354.255280,254.660599 
	C351.678406,255.780945 348.624481,255.444946 347.034424,251.769867 
z"/>
<path fill="#2563EB" opacity="1.000000" stroke="none" 
	d="
M333.000000,187.965363 
	C333.000000,191.093506 333.000000,193.731476 333.000000,196.680145 
	C297.325989,196.680145 261.981171,196.680145 226.317703,196.680145 
	C226.317703,184.630234 226.317703,172.591721 226.317703,160.210632 
	C227.677582,160.137711 228.958450,160.009644 230.239395,160.009094 
	C257.362122,159.997452 284.486816,159.810959 311.606537,160.095749 
	C322.060394,160.205536 330.206116,164.969772 332.449249,175.110214 
	C333.327026,179.078308 332.856445,183.344666 333.000000,187.965363 
z"/>
<path fill="#2563EB" opacity="1.000000" stroke="none" 
	d="
M189.018097,159.991867 
	C194.537964,158.069183 199.044479,159.361267 203.116425,162.627884 
	C209.077423,167.409943 212.106934,173.656204 210.770081,181.235199 
	C209.222305,190.009995 200.427460,197.000656 192.124451,195.826187 
	C182.155182,194.416031 175.143341,187.154373 174.841980,177.184082 
	C174.583740,168.640533 179.712143,160.969421 189.018097,159.991867 
z"/>
</svg>