<svg width="40" height="41" viewBox="0 0 40 41" fill="none" xmlns="http://www.w3.org/2000/svg">
<path d="M40 19.5C40 30.27 31.05 39 20 39C18.349 39 16.75 38.806 15.216 38.436C14.751 38.324 14.265 38.367 13.837 38.581L9.46 40.77C8.33 41.335 7 40.513 7 39.249V35.224C7 34.649 6.743 34.113 6.319 33.725C2.425 30.165 0 25.11 0 19.5C0 8.73 8.95 0 20 0C31.05 0 40 8.73 40 19.5Z" fill="url(#paint0_radial_44_7)"/>
<path opacity="0.05" d="M30.992 13.292C30.564 13.292 30.149 13.434 29.792 13.703L24.098 17.918C23.965 18.018 23.818 18.068 23.663 18.068C23.513 18.068 23.372 18.021 23.253 17.932L19.281 14.942C18.473 14.341 17.521 14.024 16.524 14.024C14.948 14.024 13.499 14.815 12.648 16.14L11.437 18.031L7.317 24.726C6.925 25.34 6.895 26.098 7.246 26.74C7.604 27.394 8.28 27.8 9.01 27.8C9.438 27.8 9.853 27.658 10.21 27.389L15.904 23.174C16.037 23.074 16.184 23.024 16.339 23.024C16.489 23.024 16.63 23.071 16.749 23.16L20.721 26.15C21.53 26.752 22.481 27.068 23.478 27.068C25.054 27.068 26.503 26.277 27.354 24.952L28.565 23.061L32.685 16.366C33.077 15.752 33.107 14.994 32.756 14.352C32.398 13.698 31.722 13.292 30.992 13.292Z" fill="black"/>
<path opacity="0.07" d="M30.992 13.792C30.673 13.792 30.362 13.899 30.093 14.102L24.396 18.32C24.18 18.483 23.928 18.568 23.664 18.568C23.405 18.568 23.16 18.486 22.954 18.332L18.981 15.341C18.262 14.806 17.413 14.524 16.524 14.524C15.119 14.524 13.828 15.229 13.069 16.411L11.859 18.302L7.744 24.99C7.447 25.455 7.424 26.023 7.686 26.501C7.952 26.987 8.473 27.301 9.011 27.301C9.33 27.301 9.641 27.194 9.91 26.991L15.607 22.773C15.823 22.61 16.075 22.525 16.339 22.525C16.598 22.525 16.843 22.607 17.049 22.761L21.022 25.752C21.741 26.287 22.59 26.569 23.479 26.569C24.884 26.569 26.175 25.864 26.934 24.682L28.144 22.791L32.259 16.103C32.556 15.638 32.579 15.07 32.317 14.592C32.051 14.106 31.531 13.792 30.992 13.792Z" fill="black"/>
<path d="M30.394 14.501L24.694 18.721C24.084 19.181 23.254 19.181 22.654 18.731L18.68 15.74C17 14.49 14.62 14.92 13.49 16.68L12.28 18.57L8.16996 25.25C7.56996 26.19 8.71995 27.26 9.60995 26.59L15.31 22.37C15.92 21.91 16.75 21.91 17.35 22.36L21.324 25.351C23.004 26.601 25.384 26.171 26.514 24.411L27.724 22.521L31.834 15.841C32.434 14.901 31.284 13.831 30.394 14.501Z" fill="white"/>
<defs>
<radialGradient id="paint0_radial_44_7" cx="0" cy="0" r="1" gradientUnits="userSpaceOnUse" gradientTransform="translate(7.087 38.978) scale(47.612)">
<stop stop-color="#1292FF"/>
<stop offset="0.079" stop-color="#2982FF"/>
<stop offset="0.23" stop-color="#4E69FF"/>
<stop offset="0.351" stop-color="#6559FF"/>
<stop offset="0.428" stop-color="#6D53FF"/>
<stop offset="0.754" stop-color="#DF47AA"/>
<stop offset="0.946" stop-color="#FF6257"/>
</radialGradient>
</defs>
</svg>
