<svg width="41" height="41" viewBox="0 0 41 41" fill="none" xmlns="http://www.w3.org/2000/svg">
<path d="M1.86804 39.303L4.56204 29.468C2.90004 26.59 2.02604 23.324 2.02704 19.979C2.03204 9.514 10.548 1 21.014 1C26.093 1.002 30.859 2.979 34.444 6.566C38.028 10.154 40.002 14.922 40 19.994C39.996 30.459 31.478 38.974 21.014 38.974H21.006C17.829 38.973 14.706 38.176 11.933 36.663L1.86804 39.303Z" fill="white"/>
<path d="M1.86797 39.803C1.73597 39.803 1.60797 39.751 1.51297 39.655C1.38797 39.528 1.33897 39.343 1.38597 39.172L4.02497 29.536C2.38897 26.63 1.52597 23.33 1.52797 19.98C1.53197 9.238 10.273 0.5 21.014 0.5C26.224 0.502 31.119 2.531 34.798 6.213C38.477 9.896 40.502 14.79 40.5 19.994C40.496 30.735 31.754 39.474 21.014 39.474C17.825 39.473 14.67 38.686 11.87 37.197L1.99497 39.786C1.95297 39.798 1.91097 39.803 1.86797 39.803Z" fill="white"/>
<path d="M21.014 1C26.093 1.002 30.859 2.979 34.444 6.566C38.028 10.154 40.002 14.922 40 19.994C39.996 30.459 31.478 38.974 21.014 38.974H21.006C17.829 38.973 14.706 38.176 11.933 36.663L1.86797 39.303L4.56196 29.468C2.89997 26.59 2.02597 23.324 2.02697 19.979C2.03197 9.514 10.548 1 21.014 1ZM21.014 0C9.99797 0 1.03197 8.962 1.02697 19.979C1.02597 23.346 1.87597 26.664 3.48797 29.601L0.902965 39.04C0.808965 39.385 0.904965 39.753 1.15697 40.007C1.34697 40.199 1.60397 40.304 1.86797 40.304C1.95297 40.304 2.03797 40.293 2.12197 40.271L11.809 37.731C14.637 39.199 17.807 39.974 21.006 39.975C32.03 39.975 40.996 31.012 41.001 19.995C41.003 14.656 38.926 9.636 35.153 5.86C31.378 2.083 26.357 0.002 21.014 0Z" fill="#CFD8DC"/>
<path d="M32.1761 8.83205C29.1961 5.85005 25.2351 4.20705 21.0191 4.20605C12.3151 4.20605 5.23606 11.2821 5.23206 19.9801C5.23106 22.9611 6.06506 25.8631 7.64506 28.3761L8.02106 28.9731L6.42606 34.7941L12.3991 33.2281L12.9761 33.5701C15.3981 35.0081 18.1761 35.7681 21.0081 35.7691H21.0141C29.7121 35.7691 36.7911 28.6921 36.7941 19.9931C36.7951 15.7781 35.1561 11.8141 32.1761 8.83205Z" fill="#40C351"/>
<path fill-rule="evenodd" clip-rule="evenodd" d="M16.268 12.0449C15.913 11.2549 15.539 11.2389 15.2 11.2249C14.923 11.2129 14.607 11.2139 14.291 11.2139C13.975 11.2139 13.461 11.3329 13.026 11.8079C12.591 12.2829 11.365 13.4299 11.365 15.7639C11.365 18.0979 13.065 20.3539 13.302 20.6699C13.539 20.9859 16.584 25.9289 21.406 27.8309C25.413 29.4109 26.229 29.0969 27.099 29.0179C27.969 28.9389 29.906 27.8709 30.301 26.7629C30.696 25.6549 30.696 24.7059 30.578 24.5079C30.459 24.3099 30.143 24.1919 29.669 23.9539C29.195 23.7159 26.862 22.5689 26.427 22.4109C25.992 22.2529 25.676 22.1739 25.359 22.6489C25.043 23.1229 24.134 24.1919 23.857 24.5079C23.58 24.8249 23.303 24.8649 22.829 24.6269C22.355 24.3889 20.827 23.8889 19.014 22.2729C17.604 21.0159 16.652 19.4629 16.375 18.9879C16.098 18.5139 16.345 18.2569 16.583 18.0199C16.796 17.8069 17.057 17.4659 17.295 17.1889C17.532 16.9119 17.611 16.7139 17.769 16.3979C17.927 16.0809 17.848 15.8039 17.729 15.5669C17.612 15.3289 16.69 12.9829 16.268 12.0449Z" fill="white"/>
</svg>
