<svg width="1388" height="877" viewBox="0 0 1388 877" fill="none" xmlns="http://www.w3.org/2000/svg">
<path d="M1354.4 304.2C1338.6 247.4 1233.5 309.2 1233.5 309.2L1261 259.3C1264.3 254.4 1267.2 249.1 1269.7 243.5C1283.6 212.6 1283.4 179.6 1269.7 150.8C1265.9 133.4 1254.5 108.4 1223 81.1001C1163.5 29.3001 963.9 -6.0999 906.1 1.8001C848.3 9.6001 958.6 33.9001 958.6 33.9001H949.9C781.6 16.0001 612.2 13.7001 444.2 17.2001C402.1 18.1001 359.8 19.5001 318.6 26.6001C306.7 28.6001 293.9 31.7001 286.9 41.3001C255.5 83.9001 383.8 88.0001 403.9 87.2001C315.8 98.6001 217.9 102.2 135.9 136.2C124.5 141 113.2 146.6 104.5 155.4C95.9 164.2 90.3 176.7 92.3 189.2C97.9 225.6 148 236.4 176.5 244.5C176.5 244.5 13 353.1 32.3 408.3C40.3 431.1 52.1 455.1 74.1 478.7C61.6 494.5 50.5 511 42 528.5C36.8 539.1 30 553.8 35.8 566.1C65.6 628.7 517 843.8 878.8 782.4C974.9 766.1 1070.6 739.1 1154.8 691.4C1238.7 644 1324.1 565.6 1345.2 466.7C1345.93 463.5 1346.47 460.333 1346.8 457.2C1359.9 411.7 1367.6 351.7 1354.4 304.2Z" fill="#2563EB"/>
<path opacity="0.8" d="M1354.4 304.2C1338.6 247.4 1233.5 309.2 1233.5 309.2L1261 259.3C1264.3 254.4 1267.2 249.1 1269.7 243.5C1283.6 212.6 1283.4 179.6 1269.7 150.8C1265.9 133.4 1254.5 108.4 1223 81.1001C1163.5 29.3001 963.9 -6.0999 906.1 1.8001C848.3 9.6001 958.6 33.9001 958.6 33.9001H949.9C781.6 16.0001 612.2 13.7001 444.2 17.2001C402.1 18.1001 359.8 19.5001 318.6 26.6001C306.7 28.6001 293.9 31.7001 286.9 41.3001C255.5 83.9001 383.8 88.0001 403.9 87.2001C315.8 98.6001 217.9 102.2 135.9 136.2C124.5 141 113.2 146.6 104.5 155.4C95.9 164.2 92.6 176.5 92.3 189.2C91.5 222.7 145.4 235.2 176.5 244.5C176.5 244.5 13 353.1 32.3 408.3C40.3 431.1 52.1 455.1 74.1 478.7C61.6 494.5 50.5 511 42 528.5C36.8 539.1 30 553.8 35.8 566.1C65.6 628.7 517 843.8 878.8 782.4C974.9 766.1 1070.6 739.1 1154.8 691.4C1238.7 644 1324.1 565.6 1345.2 466.7C1345.93 463.5 1346.47 460.333 1346.8 457.2C1359.9 411.7 1367.6 351.7 1354.4 304.2Z" fill="white"/>
<path d="M1061.9 242.2C1061.9 242.2 1064 236.1 1074.2 234C1084.4 232 1096.6 243.2 1096.6 243.2C1096.6 243.2 1104.8 226.9 1112.9 225.9C1121.1 224.8 1130.3 232 1130.3 232" stroke="#263238" stroke-width="2" stroke-miterlimit="10"/>
<path d="M1035.4 281C1035.4 281 1037.4 274.8 1047.6 272.8C1057.8 270.8 1070.1 282 1070.1 282C1070.1 282 1078.2 265.7 1086.4 264.6C1094.6 263.6 1103.8 270.8 1103.8 270.8" stroke="#263238" stroke-width="2" stroke-miterlimit="10"/>
<path d="M1132.3 281.2C1132.3 281.2 1133.9 276.5 1141.6 275C1149.4 273.4 1158.7 282 1158.7 282C1158.7 282 1165 269.6 1171.2 268.8C1177.4 268 1184.4 273.4 1184.4 273.4" stroke="#263238" stroke-width="2" stroke-miterlimit="10"/>
<path d="M1245.7 322.3C1245.7 322.3 1246.7 319.2 1251.8 318.2C1256.9 317.2 1263 322.8 1263 322.8C1263 322.8 1267.1 314.7 1271.2 314.1C1275.3 313.6 1279.8 317.2 1279.8 317.2" stroke="#263238" stroke-width="2" stroke-miterlimit="10"/>
<path d="M702.3 231.4C691.7 184 637.1 148.7 589.5 155.5C577.7 157.1 566.1 161.6 557.2 169.8C545.1 181 547.9 193.7 541.9 207.5C540.3 211.4 537 214.8 532.9 215.5C521 217.5 511.5 205.7 499.5 205.6C490.5 205.6 479.1 210.5 474.1 218.3C469.4 225.5 472.7 238 464.3 242.8C454.9 248.2 443.5 238 433.4 241.7C420.8 246.3 426.5 255.4 422 261.1C417.4 266.8 408.2 264.6 395.6 263.4C383.1 262.3 372.8 277.1 372.8 277.1H769.8C769.8 277.1 773.2 271.4 758.3 248.5C743.5 225.7 722.9 241.7 713.7 241.7C704.6 241.7 702.3 231.4 702.3 231.4Z" stroke="#263238" stroke-width="2" stroke-miterlimit="10"/>
<path d="M812.8 155.3C808.6 136.3 786.7 122.1 767.6 124.8C762.9 125.5 758.2 127.3 754.6 130.6C749.8 135.1 750.9 140.2 748.5 145.7C747.8 147.3 746.5 148.6 744.9 148.9C740.1 149.7 736.3 145 731.5 145C727.9 144.9 723.3 146.9 721.3 150C719.4 152.9 720.7 158 717.4 159.9C713.6 162 709 157.9 705 159.4C699.9 161.3 702.2 164.9 700.4 167.2C698.6 169.5 694.9 168.6 689.8 168.1C684.8 167.7 680.6 173.7 680.6 173.7H839.9C839.9 173.7 841.3 171.4 835.3 162.2C829.4 153 821.1 159.4 817.4 159.4C813.8 159.4 812.8 155.3 812.8 155.3Z" stroke="#263238" stroke-width="2" stroke-miterlimit="10"/>
<path d="M1152.7 388.2C1148.4 369.2 1126.5 355 1107.4 357.7C1102.7 358.4 1098 360.2 1094.5 363.5C1089.6 368 1090.7 373.1 1088.3 378.6C1087.6 380.2 1086.3 381.5 1084.7 381.8C1079.9 382.6 1076.1 377.9 1071.3 377.9C1067.7 377.8 1063.1 379.8 1061.1 382.9C1059.2 385.8 1060.5 390.9 1057.2 392.8C1053.4 394.9 1048.8 390.9 1044.8 392.3C1039.7 394.2 1042 397.8 1040.2 400.1C1038.4 402.4 1034.7 401.5 1029.6 401.1C1024.6 400.6 1020.5 406.6 1020.5 406.6H1179.7C1179.7 406.6 1181.1 404.3 1175.1 395.1C1169.2 385.9 1160.9 392.3 1157.2 392.3C1153.6 392.3 1152.7 388.2 1152.7 388.2Z" stroke="#263238" stroke-width="2" stroke-miterlimit="10"/>
<path d="M897.2 367.4C890.7 338.3 857.1 316.6 827.9 320.8C820.6 321.8 813.5 324.5 808 329.6C800.5 336.4 802.3 344.2 798.6 352.7C797.6 355.1 795.6 357.2 793.1 357.6C785.8 358.9 779.9 351.6 772.6 351.6C767 351.5 760 354.6 756.9 359.3C754.1 363.8 756.1 371.5 750.9 374.4C745.2 377.7 738.2 371.5 731.9 373.7C724.2 376.5 727.7 382.2 724.9 385.7C722.1 389.2 716.5 387.8 708.7 387.1C701 386.4 694.7 395.5 694.7 395.5H938.6C938.6 395.5 940.7 392 931.6 378C922.5 363.9 909.8 373.7 904.2 373.7C898.6 373.7 897.2 367.4 897.2 367.4Z" stroke="#263238" stroke-width="2" stroke-miterlimit="10"/>
<path d="M954.5 702.8C954.5 702.8 940 687.7 944 688.1C948.1 688.6 955.8 699.9 955.8 699.9C955.8 699.9 955.9 675 959.5 680.4C963.2 685.9 958.7 700 958.7 700C958.7 700 969.1 683.8 969.1 686.4C969 694.6 961.1 701 961.1 701C961.1 701 977.7 688.7 975 693.7C972.3 698.7 961.6 703.4 961.6 703.4C961.6 703.4 980.8 699.6 974 702.3C967.2 705 960.7 706.9 960.7 706.9H955.4C955.4 706.9 937.3 697.8 944.1 699.2C950.9 700.5 954.5 702.8 954.5 702.8Z" fill="#263238"/>
<path d="M1147.1 655.5C1147.1 655.5 1135.8 643.8 1139 644.1C1142.1 644.5 1148.1 653.3 1148.1 653.3C1148.1 653.3 1148.2 633.9 1151 638.1C1153.8 642.4 1150.4 653.3 1150.4 653.3C1150.4 653.3 1158.5 640.7 1158.4 642.8C1158.4 649.2 1152.2 654.2 1152.2 654.2C1152.2 654.2 1165.2 644.5 1163 648.4C1160.9 652.3 1152.6 656 1152.6 656C1152.6 656 1167.6 653 1162.3 655.1C1157 657.2 1151.9 658.7 1151.9 658.7H1147.8C1147.8 658.7 1133.7 651.6 1139 652.7C1144.3 653.8 1147.1 655.5 1147.1 655.5Z" fill="#263238"/>
<path d="M1325.9 613.3C1325.9 613.3 1314.6 601.6 1317.7 601.9C1320.9 602.3 1326.9 611.1 1326.9 611.1C1326.9 611.1 1327 591.7 1329.8 595.9C1332.6 600.2 1329.2 611.2 1329.2 611.2C1329.2 611.2 1337.3 598.5 1337.2 600.6C1337.2 607 1331 612 1331 612C1331 612 1344 602.4 1341.8 606.3C1339.7 610.2 1331.4 613.8 1331.4 613.8C1331.4 613.8 1346.4 610.8 1341.1 612.9C1335.7 615.1 1330.7 616.5 1330.7 616.5H1326.6C1326.6 616.5 1312.5 609.4 1317.8 610.5C1323.1 611.6 1325.9 613.3 1325.9 613.3Z" fill="#263238"/>
<path d="M1098 709.7C1098 709.7 1084.5 695.6 1088.3 696.1C1092.1 696.5 1099.2 707 1099.2 707C1099.2 707 1099.3 683.8 1102.7 688.9C1106.1 694 1101.9 707.1 1101.9 707.1C1101.9 707.1 1111.6 692 1111.6 694.5C1111.5 702.1 1104.1 708 1104.1 708C1104.1 708 1119.6 696.6 1117.1 701.2C1114.5 705.9 1104.6 710.3 1104.6 710.3C1104.6 710.3 1122.5 706.7 1116.1 709.2C1109.8 711.7 1103.8 713.5 1103.8 713.5H1098.8C1098.8 713.5 1082 705 1088.3 706.3C1094.7 707.6 1098 709.7 1098 709.7Z" fill="#2563EB"/>
<path d="M829.8 648.8L709.9 514.3L683.6 535.3L552.1 337.3L437.6 362.8L403.4 298.9L370.1 297.2L307.1 172.8L212.8 258.9L167.3 242.6L1.69995 411.5" stroke="#263238" stroke-width="2" stroke-miterlimit="10"/>
<path d="M852.3 674L839.7 659.9" stroke="#263238" stroke-width="2" stroke-miterlimit="10"/>
<path d="M376.2 379.3L366.3 382" stroke="#263238" stroke-width="2" stroke-miterlimit="10"/>
<path d="M437.4 362.7L387.3 376.3" stroke="#263238" stroke-width="2" stroke-miterlimit="10"/>
<path d="M248.5 305.1L276.6 263.8L274.7 249.6L306.8 184.3" stroke="#263238" stroke-width="2" stroke-miterlimit="10"/>
<path d="M236.8 322.4L243.8 312.1" stroke="#263238" stroke-width="2" stroke-miterlimit="10"/>
<path d="M193.3 346.9L147.8 408.6" stroke="#263238" stroke-width="2" stroke-miterlimit="10"/>
<path d="M169.6 249.6L181 275.1L206.5 295.9L203.7 332.9L197.5 341.3" stroke="#263238" stroke-width="2" stroke-miterlimit="10"/>
<path d="M403.4 298.9L379.7 321.5L371.2 307.3" stroke="#263238" stroke-width="2" stroke-miterlimit="10"/>
<path d="M1360 551.9L1176 422.1L1120.1 500.9L1051.1 477.9L944.3 627.5L875.3 612.7L840.8 642.2" stroke="#263238" stroke-width="2" stroke-miterlimit="10"/>
<path d="M1176 422.1L1154.1 518.2L1128.3 507" stroke="#263238" stroke-width="2" stroke-miterlimit="10"/>
<path d="M1051.7 483.6L997.7 640.8L960.6 634.4" stroke="#263238" stroke-width="2" stroke-miterlimit="10"/>
<path d="M1049.2 472.3C1001.3 472.3 962.5 510.9 962.5 558.5C962.5 580.5 970.8 600.6 984.6 615.9C990.8 615 1002.3 614.3 1014.9 618.6C1031.7 624.3 1042.1 633.7 1044.4 635.9H1052.2C1054.5 633.7 1064.9 624.3 1081.7 618.6C1095.5 613.9 1107.8 615.1 1113.6 616.1C1127.5 600.8 1135.9 580.6 1135.9 558.5C1135.9 510.9 1097.1 472.3 1049.2 472.3Z" fill="#2563EB"/>
<path d="M1089.6 593C1086.93 594.266 1084.27 595.6 1081.6 597C1079 598.5 1076.5 600 1074.1 601.7C1073.17 602.3 1072.27 602.933 1071.4 603.6L1085.6 577.2L1066.1 607.7C1064.1 609.3 1062.17 610.933 1060.3 612.6C1057.17 615.333 1054.1 618.133 1051.1 621L1050.1 592.3L1070.5 561.2L1049.9 587.9L1049 562.2L1047.6 591L1046.1 619.8C1043.5 617.333 1040.83 614.933 1038.1 612.6C1035.97 610.733 1033.8 608.9 1031.6 607.1L1013.2 575.6L1026.7 603.4C1025.9 602.8 1025.13 602.233 1024.4 601.7C1022 600 1019.4 598.5 1016.8 597C1014.2 595.6 1011.57 594.266 1008.9 593C1003.5 590.4 998.1 588 992.5 586.1C997.9 588.4 1003.2 591.1 1008.3 594C1010.83 595.4 1013.33 596.866 1015.8 598.4C1018.3 600 1020.6 601.6 1022.8 603.4C1027.3 606.9 1031.5 610.8 1035.6 614.8C1039.1 618.3 1042.5 622 1045.8 625.6L1044 662.2H1052.5L1051.3 627.1C1054.9 622.9 1058.8 618.8 1062.8 614.8C1066.9 610.8 1071.1 606.9 1075.6 603.4C1077.8 601.6 1080.2 600 1082.6 598.4C1085.07 596.866 1087.6 595.4 1090.2 594C1095.3 591.1 1100.5 588.4 1106 586.1C1100.3 588 1094.9 590.4 1089.6 593Z" fill="#263238"/>
<path d="M383.4 590.5C383.4 615.3 369.5 617.1 352.4 617.1C335.3 617.1 321.4 615.3 321.4 590.5C321.4 565.8 335.3 514 352.4 514C369.5 514 383.4 565.8 383.4 590.5Z" fill="#2563EB"/>
<path d="M362.9 601.7L357.8 602.1L371.1 593.1L361.6 597.9L362.9 594.1L358.5 599.5L353.4 602L353 584.3L355.7 577.7L353 581.4L352.7 571.1L361.2 559.8L352.7 568.5L352.1 545.8L351.7 560.4L346.2 554.3L351.6 563.1L350.9 586.1L346.1 583L341.8 575.4L343.5 581.3L335.1 575.8L350.8 589.4L348.4 664.8H354.9L353.5 605L355 604L362.9 601.7Z" fill="#263238"/>
<path d="M1217 505.3C1217 553.6 1189.9 557.3 1156.5 557.3C1123 557.3 1095.9 553.6 1095.9 505.3C1095.9 456.9 1123 355.9 1156.5 355.9C1189.9 355.9 1217 456.9 1217 505.3Z" fill="#2563EB"/>
<path opacity="0.3" d="M1217 505.3C1217 553.6 1189.9 557.3 1156.5 557.3C1123 557.3 1095.9 553.6 1095.9 505.3C1095.9 456.9 1123 355.9 1156.5 355.9C1189.9 355.9 1217 456.9 1217 505.3Z" fill="white"/>
<path d="M1176.9 527.2L1166.9 527.9L1193 510.3L1174.4 519.8L1176.9 512.4L1168.4 522.8L1158.4 527.8L1157.6 493.1L1162.9 480.2L1157.5 487.5L1157.1 467.3L1173.7 445.2L1156.9 462.3L1155.9 418L1155 446.4L1144.4 434.5L1154.9 451.8L1153.4 496.7L1144.2 490.7L1135.7 475.7L1139.1 487.4L1122.5 476.5L1153.2 503L1148.6 650.5H1161.2L1158.6 533.6L1161.5 531.6L1176.9 527.2Z" fill="#263238"/>
<path d="M1346.7 524.3C1346.7 549.1 1332.8 550.9 1315.7 550.9C1298.6 550.9 1284.7 549.1 1284.7 524.3C1284.7 499.6 1298.6 447.9 1315.7 447.9C1332.8 447.9 1346.7 499.6 1346.7 524.3Z" fill="#2563EB"/>
<path opacity="0.5" d="M1346.7 524.3C1346.7 549.1 1332.8 550.9 1315.7 550.9C1298.6 550.9 1284.7 549.1 1284.7 524.3C1284.7 499.6 1298.6 447.9 1315.7 447.9C1332.8 447.9 1346.7 499.6 1346.7 524.3Z" fill="white"/>
<path d="M1326.2 535.6L1321 535.9L1334.4 526.9L1324.8 531.7L1326.2 528L1321.8 533.3L1316.7 535.9L1316.3 518.1L1319 511.5L1316.2 515.2L1316 504.9L1324.5 493.6L1315.9 502.3L1315.4 479.7L1314.9 494.2L1309.5 488.1L1314.9 497L1314.1 519.9L1309.4 516.8L1305.1 509.2L1306.8 515.2L1298.3 509.6L1314 523.2L1311.6 598.6H1318.1L1316.8 538.8L1318.2 537.8L1326.2 535.6Z" fill="#263238"/>
<path d="M83.3 503.4C83.3 528.1 69.5 530 52.3 530C35.2 530 21.3 528.1 21.3 503.4C21.3 478.7 35.2 426.9 52.3 426.9C69.5 426.9 83.3 478.7 83.3 503.4Z" fill="#2563EB"/>
<path opacity="0.5" d="M83.3 503.4C83.3 528.1 69.5 530 52.3 530C35.2 530 21.3 528.1 21.3 503.4C21.3 478.7 35.2 426.9 52.3 426.9C69.5 426.9 83.3 478.7 83.3 503.4Z" fill="white"/>
<path d="M62.8 514.6L57.7 515L71 506L61.5 510.8L62.8 507L58.5 512.3L53.3 514.9L52.9 497.2L55.6 490.6L52.9 494.3L52.6 484L61.1 472.7L52.6 481.4L52.1 458.7L51.6 473.2L46.2 467.2L51.5 476L50.8 499L46 495.9L41.7 488.3L43.5 494.2L35 488.7L50.7 502.2L48.3 577.7H54.8L53.4 517.9L54.9 516.9L62.8 514.6Z" fill="#263238"/>
<path d="M236.9 447.3C189 447.3 150.2 485.8 150.2 533.4C150.2 555.5 158.6 575.6 172.3 590.8C178.6 589.9 190 589.3 202.7 593.6C219.4 599.3 229.9 608.6 232.1 610.8H239.9C242.2 608.6 252.7 599.3 269.4 593.6C283.2 588.9 295.5 590.1 301.3 591.1C315.2 575.8 323.6 555.6 323.6 533.4C323.6 485.8 284.8 447.3 236.9 447.3Z" fill="#2563EB"/>
<path opacity="0.3" d="M236.9 447.3C189 447.3 150.2 485.8 150.2 533.4C150.2 555.5 158.6 575.6 172.3 590.8C178.6 589.9 190 589.3 202.7 593.6C219.4 599.3 229.9 608.6 232.1 610.8H239.9C242.2 608.6 252.7 599.3 269.4 593.6C283.2 588.9 295.5 590.1 301.3 591.1C315.2 575.8 323.6 555.6 323.6 533.4C323.6 485.8 284.8 447.3 236.9 447.3Z" fill="white"/>
<path d="M277.3 568C274.633 569.266 272 570.6 269.4 572C266.7 573.4 264.2 574.9 261.8 576.6C260.867 577.266 259.967 577.933 259.1 578.6L273.3 552.1L253.8 582.6C251.867 584.2 249.933 585.833 248 587.5C244.867 590.233 241.8 593.033 238.8 595.9L237.8 567.2L258.2 536.1L237.7 562.9L236.8 537.2L235.3 565.9L233.8 594.7C231.2 592.233 228.567 589.833 225.9 587.5C223.767 585.633 221.567 583.8 219.3 582L200.9 550.5L214.4 578.3C213.667 577.766 212.9 577.2 212.1 576.6C209.7 574.9 207.1 573.4 204.5 572C201.9 570.6 199.267 569.266 196.6 568C191.2 565.4 185.8 563 180.2 561C185.6 563.3 190.9 566 196 568.9C198.533 570.366 201.033 571.866 203.5 573.4C206 574.9 208.3 576.5 210.6 578.3C215.1 581.9 219.3 585.8 223.3 589.8C226.8 593.3 230.3 596.9 233.5 600.6L231.7 637.2H240.2L239 602.1C242.7 597.9 246.6 593.8 250.6 589.8C254.6 585.8 258.8 581.9 263.3 578.3C265.5 576.5 267.9 574.9 270.3 573.4C272.767 571.866 275.3 570.366 277.9 568.9C283 566 288.2 563.3 293.7 561C288.1 563 282.6 565.4 277.3 568Z" fill="#263238"/>
<path fill-rule="evenodd" clip-rule="evenodd" d="M477.7 704.3V624.9H374.4V574.1L463 364.2H538.6V575.4H571.3V624.9H538.6V704.3H477.7ZM425.6 575.4H477.7V431L425.6 575.4Z" fill="#263238"/>
<path fill-rule="evenodd" clip-rule="evenodd" d="M693.1 704.5C672.633 704.5 655.7 700.3 642.3 691.9C628.833 683.5 618.733 671.933 612 657.2C605.333 642.533 602 625.533 602 606.2V453.8C601.933 433.933 605.133 416.533 611.6 401.6C618.066 386.6 628 374.9 641.4 366.5C654.866 358.1 672.1 353.9 693.1 353.9C713.766 353.9 730.766 358.1 744.1 366.5C757.366 374.9 767.233 386.6 773.7 401.6C780.1 416.533 783.3 433.933 783.3 453.8V606.2C783.3 625.533 779.966 642.533 773.3 657.2C766.566 671.933 756.466 683.5 743 691.9C729.6 700.3 712.966 704.5 693.1 704.5ZM693.1 647.4C700.633 647.4 706.066 645 709.4 640.2C712.8 635.467 715.066 629.8 716.2 623.2C717.266 616.667 717.8 610.6 717.8 605V455.1C717.8 448.9 717.333 442.467 716.4 435.8C715.4 429.067 713.233 423.233 709.9 418.3C706.5 413.433 700.9 411 693.1 411C685.233 411 679.566 413.433 676.1 418.3C672.566 423.233 670.3 429.067 669.3 435.8C668.366 442.467 667.9 448.9 667.9 455.1V605C667.9 610.6 668.433 616.667 669.5 623.2C670.633 629.8 673.033 635.467 676.7 640.2C680.3 645 685.766 647.4 693.1 647.4Z" fill="#263238"/>
<path fill-rule="evenodd" clip-rule="evenodd" d="M921.9 704.3V624.9H818.6V574.1L907.2 364.2H982.8V575.4H1015.5V624.9H982.8V704.3H921.9ZM869.8 575.4H921.9V431L869.8 575.4Z" fill="#263238"/>
<path d="M1386.2 540.3C1255.5 626 997.2 684.3 700 684.3C393.7 684.3 128.8 622.4 2.1001 532.3V877H1386.2V540.3Z" fill="white"/>
<path d="M1357.8 557.4C1220.2 633.7 977 684.3 700 684.3C393.7 684.3 128.8 622.4 2.1001 532.3" stroke="#263238" stroke-width="2" stroke-miterlimit="10"/>
<path d="M1386.8 539.9C1380.93 543.767 1374.8 547.6 1368.4 551.4" stroke="#263238" stroke-width="2" stroke-miterlimit="10"/>
<path d="M1302.7 520.3C1302.7 570.9 1274.4 574.7 1239.4 574.7C1204.4 574.7 1176.1 570.9 1176.1 520.3C1176.1 469.7 1204.4 364.1 1239.4 364.1C1274.4 364.1 1302.7 469.7 1302.7 520.3Z" fill="#2563EB"/>
<path d="M1260.8 543.2L1250.3 544L1277.6 525.599L1258.1 535.4L1260.8 527.7L1251.9 538.599L1241.5 543.9L1240.6 507.5L1246.2 494.099L1240.5 501.7L1240 480.599L1257.4 457.5L1239.9 475.4L1238.8 429L1237.9 458.7L1226.8 446.299L1237.7 464.4L1236.2 511.4L1226.6 505L1217.7 489.4L1221.3 501.599L1203.9 490.2L1236 517.9L1231.2 672.099H1244.4L1241.6 549.9L1244.7 547.799L1260.8 543.2Z" fill="#263238"/>
<path d="M1235.1 673.5C1235.1 673.5 1211.8 649.3 1218.3 650C1224.9 650.7 1237.2 668.8 1237.2 668.8C1237.2 668.8 1237.3 628.9 1243.2 637.6C1249 646.4 1241.8 669 1241.8 669C1241.8 669 1258.5 643 1258.5 647.2C1258.4 660.4 1245.6 670.7 1245.6 670.7C1245.6 670.7 1272.3 650.9 1267.9 658.9C1263.6 666.9 1246.5 674.5 1246.5 674.5C1246.5 674.5 1277.3 668.3 1266.3 672.7C1255.4 677 1245 680 1245 680H1236.5C1236.5 680 1207.4 665.5 1218.4 667.6C1229.3 669.8 1235.1 673.5 1235.1 673.5Z" fill="#263238"/>
<path d="M115.4 643.4C115.4 643.4 95.1999 622.5 100.9 623.1C106.6 623.7 117.2 639.4 117.2 639.4C117.2 639.4 117.3 604.9 122.4 612.4C127.4 620 121.2 639.5 121.2 639.5C121.2 639.5 135.7 617 135.6 620.7C135.5 632.1 124.5 641 124.5 641C124.5 641 147.6 623.9 143.8 630.8C140 637.7 125.3 644.3 125.3 644.3C125.3 644.3 151.9 638.9 142.4 642.7C133 646.5 124 649.1 124 649.1H116.6C116.6 649.1 91.4999 636.5 100.9 638.4C110.4 640.3 115.4 643.4 115.4 643.4Z" fill="#263238"/>
<path d="M188.5 492.7C188.5 543.4 160.1 547.2 125.1 547.2C90.1 547.2 61.7 543.4 61.7 492.7C61.7 442.1 90.1 336.3 125.1 336.3C160.1 336.3 188.5 442.1 188.5 492.7Z" fill="#2563EB"/>
<path d="M146.6 515.7L136.1 516.4L163.4 498L143.9 507.9L146.6 500.2L137.6 511L127.2 516.3L126.4 480L131.9 466.5L126.2 474.1L125.7 453L143.1 429.8L125.6 447.8L124.6 401.4L123.6 431.1L112.5 418.6L123.4 436.8L122 483.8L112.3 477.4L103.4 461.8L107 474L89.5999 462.6L121.7 490.4L116.9 644.7H130.1L127.3 522.3L130.4 520.3L146.6 515.7Z" fill="#263238"/>
<path d="M336.8 696C336.8 696 316.6 675.1 322.2 675.7C327.9 676.3 338.5 692 338.5 692C338.5 692 338.7 657.5 343.7 665C348.8 672.6 342.6 692.1 342.6 692.1C342.6 692.1 357 669.7 357 673.3C356.9 684.7 345.8 693.6 345.8 693.6C345.8 693.6 368.9 676.5 365.2 683.4C361.4 690.4 346.6 696.9 346.6 696.9C346.6 696.9 373.2 691.5 363.8 695.3C354.3 699.1 345.3 701.7 345.3 701.7H338C338 701.7 312.8 689.1 322.3 691C331.7 692.9 336.8 696 336.8 696Z" fill="#263238"/>
<path d="M444.1 741.9C444.1 741.9 423.9 721 429.5 721.6C435.2 722.2 445.8 737.9 445.8 737.9C445.8 737.9 446 703.4 451 710.9C456.1 718.5 449.9 738 449.9 738C449.9 738 464.3 715.6 464.3 719.2C464.2 730.6 453.1 739.5 453.1 739.5C453.1 739.5 476.2 722.4 472.5 729.3C468.7 736.3 453.9 742.8 453.9 742.8C453.9 742.8 480.5 737.4 471.1 741.2C461.6 745 452.6 747.6 452.6 747.6H445.3C445.3 747.6 420.1 735 429.6 736.9C439 738.8 444.1 741.9 444.1 741.9Z" fill="#263238"/>
<path d="M731.9 711.1C731.9 711.1 717.3 696 721.4 696.5C725.5 696.9 733.1 708.2 733.1 708.2C733.1 708.2 733.3 683.3 736.9 688.8C740.5 694.2 736.1 708.3 736.1 708.3C736.1 708.3 746.5 692.1 746.4 694.7C746.4 702.9 738.4 709.3 738.4 709.3C738.4 709.3 755.1 697 752.4 702C749.6 707 739 711.7 739 711.7C739 711.7 758.2 707.9 751.3 710.6C744.5 713.3 738 715.2 738 715.2H732.7C732.7 715.2 714.6 706.1 721.4 707.5C728.2 708.8 731.9 711.1 731.9 711.1Z" fill="#263238"/>
<path d="M1297.9 675C1297.9 675 1286.6 663.2 1289.8 663.6C1293 663.9 1298.9 672.7 1298.9 672.7C1298.9 672.7 1299 653.3 1301.8 657.6C1304.7 661.8 1301.2 672.8 1301.2 672.8C1301.2 672.8 1309.3 660.2 1309.3 662.2C1309.2 668.6 1303 673.6 1303 673.6C1303 673.6 1316 664 1313.9 667.9C1311.7 671.8 1303.5 675.4 1303.5 675.4C1303.5 675.4 1318.4 672.4 1313.1 674.6C1307.8 676.7 1302.7 678.1 1302.7 678.1H1298.6C1298.6 678.1 1284.5 671.1 1289.8 672.1C1295.1 673.2 1297.9 675 1297.9 675Z" fill="#263238"/>
<path d="M533.8 711.2C533.8 711.2 513.6 690.2 519.3 690.9C524.9 691.5 535.6 707.2 535.6 707.2C535.6 707.2 535.7 672.6 540.7 680.2C545.8 687.8 539.6 707.3 539.6 707.3C539.6 707.3 554 684.8 554 688.5C553.9 699.9 542.9 708.7 542.9 708.7C542.9 708.7 566 691.6 562.2 698.6C558.4 705.5 543.6 712.1 543.6 712.1C543.6 712.1 570.2 706.7 560.8 710.5C551.3 714.3 542.3 716.9 542.3 716.9H535C535 716.9 509.8 704.3 519.3 706.1C528.8 708 533.8 711.2 533.8 711.2Z" fill="#2563EB"/>
<path d="M387.9 697.3C387.9 697.3 374.4 683.2 378.2 683.6C382 684.1 389.1 694.6 389.1 694.6C389.1 694.6 389.2 671.4 392.6 676.5C396 681.6 391.8 694.7 391.8 694.7C391.8 694.7 401.5 679.6 401.5 682.1C401.4 689.7 394 695.6 394 695.6C394 695.6 409.5 684.2 406.9 688.8C404.4 693.5 394.5 697.9 394.5 697.9C394.5 697.9 412.4 694.3 406 696.8C399.7 699.3 393.6 701.1 393.6 701.1H388.7C388.7 701.1 371.9 692.6 378.2 693.9C384.5 695.2 387.9 697.3 387.9 697.3Z" fill="#2563EB"/>
<path d="M218.5 752.8C218.5 752.8 205 738.7 208.8 739.1C212.6 739.6 219.7 750.1 219.7 750.1C219.7 750.1 219.8 726.9 223.2 732C226.6 737 222.4 750.2 222.4 750.2C222.4 750.2 232.1 735.1 232.1 737.5C232 745.2 224.6 751.1 224.6 751.1C224.6 751.1 240.1 739.6 237.6 744.3C235 748.9 225.1 753.3 225.1 753.3C225.1 753.3 243 749.7 236.6 752.3C230.3 754.8 224.2 756.6 224.2 756.6H219.3C219.3 756.6 202.5 748.1 208.8 749.4C215.1 750.6 218.5 752.8 218.5 752.8Z" fill="#2563EB"/>
<path d="M672.1 755.5C672.1 755.5 658.5 741.4 662.3 741.9C666.1 742.3 673.2 752.8 673.2 752.8C673.2 752.8 673.3 729.6 676.7 734.7C680.1 739.8 675.9 752.9 675.9 752.9C675.9 752.9 685.6 737.8 685.6 740.3C685.5 747.9 678.1 753.8 678.1 753.8C678.1 753.8 693.6 742.4 691.1 747C688.5 751.7 678.6 756.1 678.6 756.1C678.6 756.1 696.5 752.5 690.2 755C683.8 757.5 677.8 759.3 677.8 759.3H672.8C672.8 759.3 656 750.8 662.3 752.1C668.7 753.4 672.1 755.5 672.1 755.5Z" fill="#2563EB"/>
<path d="M892 756.2C892 756.2 878.5 742.2 882.3 742.6C886.1 743 893.2 753.5 893.2 753.5C893.2 753.5 893.3 730.4 896.7 735.4C900 740.5 895.9 753.6 895.9 753.6C895.9 753.6 905.6 738.5 905.5 741C905.5 748.6 898.1 754.6 898.1 754.6C898.1 754.6 913.6 743.1 911 747.8C908.5 752.4 898.6 756.8 898.6 756.8C898.6 756.8 916.4 753.2 910.1 755.7C903.8 758.3 897.7 760 897.7 760H892.8C892.8 760 875.9 751.6 882.3 752.8C888.6 754.1 892 756.2 892 756.2Z" fill="#2563EB"/>
<path d="M1300.9 712.3C1300.9 712.3 1280.3 690.9 1286.1 691.5C1291.9 692.2 1302.7 708.2 1302.7 708.2C1302.7 708.2 1302.9 672.9 1308 680.6C1313.2 688.4 1306.8 708.3 1306.8 708.3C1306.8 708.3 1321.6 685.3 1321.5 689.1C1321.4 700.7 1310.2 709.8 1310.2 709.8C1310.2 709.8 1333.8 692.3 1329.9 699.4C1326 706.5 1311 713.2 1311 713.2C1311 713.2 1338.1 707.7 1328.5 711.5C1318.8 715.4 1309.6 718.1 1309.6 718.1H1302.1C1302.1 718.1 1276.5 705.2 1286.1 707.1C1295.8 709.1 1300.9 712.3 1300.9 712.3Z" fill="#2563EB"/>
<path d="M71.1 712.3C71.1 712.3 50.4 690.9 56.2 691.5C62 692.2 72.9 708.2 72.9 708.2C72.9 708.2 73 672.9 78.2 680.6C83.3 688.4 77 708.3 77 708.3C77 708.3 91.7 685.3 91.7 689.1C91.6 700.7 80.3 709.8 80.3 709.8C80.3 709.8 103.9 692.3 100 699.4C96.2 706.5 81.1 713.2 81.1 713.2C81.1 713.2 108.3 707.7 98.6 711.5C89 715.4 79.8 718.1 79.8 718.1H72.3C72.3 718.1 46.6 705.2 56.3 707.1C65.9 709.1 71.1 712.3 71.1 712.3Z" fill="#2563EB"/>
<path d="M172.9 682.1C172.9 682.1 151.8 645.6 157.8 642.8C163.8 640 176.3 667.7 176.3 667.7C176.3 667.7 173.9 615.5 179.5 620.3C185.1 625.2 190.3 662.1 190.3 662.1C190.3 662.1 201.6 621.9 205.2 630.4C208.8 638.8 202.3 664.3 202.3 664.3C202.3 664.3 218.4 633.6 220.1 643.6C221.7 653.7 212.4 670.1 212.4 670.1C212.4 670.1 233.7 648.9 235.3 657.3C236.9 665.7 229.7 674.2 229.7 674.2C229.7 674.2 257.8 658.9 251 667.3C244.2 675.8 234.1 686.6 234.1 686.6C234.1 686.6 261 677 257.8 682.6C254.6 688.2 242.5 694.2 242.5 694.2C242.5 694.2 264.6 690.2 262.2 693.8C259.8 697.5 254.2 701 254.2 701H154.2C154.2 701 127.7 691.4 138.1 690.6C148.6 689.8 158.2 694.2 158.2 694.2C158.2 694.2 125.7 672.2 140.9 670.6C156.2 668.9 168.6 688.2 168.6 688.2C168.6 688.2 147 657.7 154.6 662.5L172.9 682.1Z" fill="#2563EB"/>
<path d="M174.3 692.4C174.3 692.4 147 664.2 154.6 665C162.3 665.9 176.6 687 176.6 687C176.6 687 176.8 640.4 183.6 650.6C190.4 660.8 182.1 687.2 182.1 687.2C182.1 687.2 201.5 656.9 201.5 661.8C201.3 677.2 186.5 689.1 186.5 689.1C186.5 689.1 217.6 666.1 212.5 675.4C207.4 684.8 187.5 693.6 187.5 693.6C187.5 693.6 223.4 686.4 210.7 691.5C197.9 696.6 185.8 700.1 185.8 700.1H175.8C175.8 700.1 141.9 683.1 154.7 685.6C167.4 688.2 174.3 692.4 174.3 692.4Z" fill="#263238" stroke="#263238" stroke-width="2" stroke-miterlimit="10"/>
<path d="M1072.4 746.2C1072.4 746.2 1032.5 677.3 1043.9 672C1055.3 666.7 1078.8 719.1 1078.8 719.1C1078.8 719.1 1074.2 620.4 1084.9 629.5C1095.5 638.6 1105.4 708.4 1105.4 708.4C1105.4 708.4 1126.6 632.5 1133.5 648.5C1140.3 664.4 1128 712.6 1128 712.6C1128 712.6 1158.5 654.5 1161.5 673.5C1164.6 692.5 1147.1 723.6 1147.1 723.6C1147.1 723.6 1187.4 683.4 1190.4 699.3C1193.4 715.3 1179.8 731.2 1179.8 731.2C1179.8 731.2 1232.9 702.4 1220 718.3C1207.1 734.3 1188.1 754.7 1188.1 754.7C1188.1 754.7 1239 736.5 1232.9 747.2C1226.8 757.8 1204.1 769.2 1204.1 769.2C1204.1 769.2 1245.8 761.6 1241.3 768.4C1236.7 775.2 1226.1 782 1226.1 782H1037C1037 782 986.9 763.9 1006.7 762.3C1026.4 760.8 1044.6 769.2 1044.6 769.2C1044.6 769.2 983.1 727.4 1012 724.4C1040.8 721.3 1064.4 757.8 1064.4 757.8C1064.4 757.8 1023.4 700.1 1037.8 709.2L1072.4 746.2Z" fill="#2563EB"/>
<path d="M1075 765.8C1075 765.8 1023.4 712.3 1037.9 713.9C1052.4 715.6 1079.4 755.5 1079.4 755.5C1079.4 755.5 1079.8 667.5 1092.7 686.7C1105.5 706 1089.7 755.9 1089.7 755.9C1089.7 755.9 1126.5 698.5 1126.4 707.9C1126.2 736.9 1098.1 759.5 1098.1 759.5C1098.1 759.5 1157 715.9 1147.3 733.6C1137.7 751.3 1100 768 1100 768C1100 768 1167.9 754.3 1143.8 763.9C1119.7 773.6 1096.7 780.2 1096.7 780.2H1078C1078 780.2 1013.9 748.1 1038 752.9C1062.1 757.7 1075 765.8 1075 765.8Z" fill="#263238" stroke="#263238" stroke-width="2" stroke-miterlimit="10"/>
<path d="M241.7 684.1C241.7 684.1 245.8 680.4 249.3 680.4C252.8 680.4 263.5 685.6 263.5 685.6C263.5 685.6 267.8 692.2 268.1 692.6C268.5 693 273.8 695.2 274.2 696.1C274.6 697.1 275.3 700.1 275.3 700.1H242.7L236.6 684.3L241.7 684.1Z" fill="white" stroke="#263238" stroke-width="2" stroke-miterlimit="10"/>
<path d="M249.3 680.4L249.1 683.6C249.1 683.6 257.4 688.4 257.3 690.2C257.1 691.9 255.3 696 255.3 696L259.6 700.5H236.8L238.6 687.1C238.6 687.1 243.4 680.1 249.3 680.4Z" fill="#263238"/>
<path d="M199.1 682.2C199.1 682.2 215.4 657.7 219.1 657.3C222.8 656.9 230.6 660 233.5 665.1C236.4 670.1 239.2 680.1 239.4 680.6C239.6 681.2 240.3 681.6 244.8 688.8C249.3 696 249.1 700.1 249.1 700.1H185.9C185.9 700.1 187.2 693.7 189.6 690C191.9 686.3 197.3 684.9 197.3 684.9L199.1 682.2Z" fill="white" stroke="#263238" stroke-width="2" stroke-miterlimit="10"/>
<path d="M224.2 699.7C224.2 699.7 222.4 695.4 222.2 694.8C222 694.3 222 688.6 221.5 686.3C220.9 683.9 216 676.7 216 676.7L219.5 666.6L217.8 665.3L220.7 658.1L219.1 657.3C215.2 658 199.1 682.2 199.1 682.2L197.3 684.9C197.3 684.9 191.9 686.3 189.6 690C187.6 693.1 186.3 698.3 186 699.7H224.2Z" fill="#263238"/>
<path d="M871.7 690.2C871.7 690.2 874.2 687.9 876.4 687.9C878.6 687.9 885.3 691.1 885.3 691.1C885.3 691.1 888 695.3 888.3 695.5C888.5 695.8 891.8 697.2 892 697.8C892.3 698.3 892.8 700.2 892.8 700.2H872.3L868.5 690.3L871.7 690.2Z" fill="white" stroke="#263238" stroke-width="2" stroke-miterlimit="10"/>
<path d="M876.4 687.9L876.3 689.9C876.3 689.9 881.6 692.9 881.4 694C881.3 695.1 880.2 697.7 880.2 697.7L882.9 700.5H868.6L869.7 692.1C869.7 692.1 872.8 687.7 876.4 687.9Z" fill="#263238"/>
<path d="M845 689C845 689 855.2 673.6 857.5 673.4C859.8 673.2 864.7 675.1 866.6 678.3C868.4 681.5 870.1 687.7 870.2 688C870.3 688.4 870.8 688.7 873.6 693.2C876.4 697.7 876.3 700.2 876.3 700.2H836.7C836.7 700.2 837.5 696.2 839 693.9C840.5 691.6 843.9 690.7 843.9 690.7L845 689Z" fill="white" stroke="#263238" stroke-width="2" stroke-miterlimit="10"/>
<path d="M860.7 700C860.7 700 859.6 697.3 859.5 696.9C859.4 696.6 859.4 693 859 691.6C858.6 690.1 855.6 685.6 855.6 685.6L857.8 679.3L856.7 678.4L858.5 673.9L857.5 673.4C855.1 673.8 845 689 845 689L843.9 690.7C843.9 690.7 840.5 691.6 839 693.9C837.7 695.9 836.9 699.1 836.7 700H860.7Z" fill="#263238"/>
<path d="M1202.4 750.1C1202.4 750.1 1210.2 743.1 1216.8 743.1C1223.4 743.1 1243.6 752.8 1243.6 752.8C1243.6 752.8 1251.7 765.3 1252.4 766C1253.2 766.8 1263.1 771 1263.8 772.7C1264.6 774.5 1266 780.2 1266 780.2H1204.3L1192.9 750.3L1202.4 750.1Z" fill="white" stroke="#263238" stroke-width="2" stroke-miterlimit="10"/>
<path d="M1216.8 743.1L1216.4 749C1216.4 749 1232.2 758.2 1231.9 761.5C1231.5 764.8 1228.2 772.5 1228.2 772.5L1236.3 781H1193.3L1196.6 755.6C1196.6 755.6 1205.8 742.4 1216.8 743.1Z" fill="#263238"/>
<path d="M1121.9 746.4C1121.9 746.4 1152.8 700.1 1159.8 699.3C1166.8 698.6 1181.5 704.5 1187 714C1192.5 723.6 1197.7 742.4 1198 743.5C1198.4 744.6 1199.9 745.3 1208.3 758.9C1216.8 772.5 1216.4 780.2 1216.4 780.2H1096.9C1096.9 780.2 1099.5 768.1 1103.9 761.1C1108.3 754.1 1118.6 751.5 1118.6 751.5L1121.9 746.4Z" fill="white" stroke="#263238" stroke-width="2" stroke-miterlimit="10"/>
<path d="M1169.4 779.5C1169.4 779.5 1166 771.4 1165.7 770.3C1165.3 769.2 1165.3 758.5 1164.2 754.1C1163.1 749.7 1153.9 736.1 1153.9 736.1L1160.5 717L1157.2 714.4L1162.7 700.8L1159.7 699.4C1152.4 700.7 1121.9 746.4 1121.9 746.4L1118.6 751.5C1118.6 751.5 1108.3 754.1 1103.9 761.1C1100.1 767.1 1097.7 776.8 1097.1 779.5H1169.4Z" fill="#263238"/>
</svg>
