<svg width="349" height="463" viewBox="0 0 349 463" fill="none" xmlns="http://www.w3.org/2000/svg">
<path d="M32.2961 270.709C18.8693 246.977 8.496 222.301 3.36379 195.928C0.646622 181.966 -0.55693 167.303 0.328423 153.13C2.20367 123.109 11.5324 95.2633 30.3318 71.2084C36.3922 63.4539 42.1338 55.2563 49.2371 48.5491C66.6268 32.1288 86.5465 19.5466 109.392 11.7607C125.429 6.29554 141.892 3.40234 158.69 1.99445C166.72 1.3214 174.74 0.354933 182.785 0.0624077C201.269 -0.60974 218.713 4.58622 235.901 10.5119C251.834 16.0051 266.594 23.9888 280.084 34.0741C299.131 48.3134 314.772 65.6374 326.795 86.2866C336.179 102.403 342.462 119.641 345.762 137.835C348.605 153.506 348.942 169.382 347.128 185.341C343.176 220.112 329.071 251.053 310.366 279.805C290.713 310.016 269.589 339.283 248.72 368.687C231.14 393.457 212.997 417.827 195.122 442.387C191.761 447.004 188.927 452.093 185.076 456.245C177.63 464.272 167.32 464.512 160.133 456.394C153.882 449.332 148.73 441.291 143.146 433.643C128.796 413.99 114.251 394.474 100.204 374.606C85.2277 353.424 70.4425 332.093 56.1393 310.454C47.6978 297.682 40.3531 284.186 32.2961 270.709ZM38.0785 183.101C39.3879 190.146 40.372 197.271 42.0657 204.222C47.9125 228.221 59.5076 249.125 76.5235 267.045C85.6375 276.642 95.6413 285.116 107.212 291.611C123.737 300.889 141.421 307.136 160.259 308.829C181.102 310.702 201.755 308.01 221.355 300.675C244.151 292.144 263.623 278.621 279.18 259.472C298.482 235.713 307.657 208.362 308.788 178.246C309.148 168.673 307.346 158.957 305.951 149.391C302.484 125.629 292.028 104.906 276.366 87.051C257.843 65.9346 234.585 51.9524 207.271 45.1579C190.213 40.9147 172.771 39.1419 155.387 42.191C136.765 45.4572 118.777 51.0064 102.356 60.8983C75.5745 77.0311 57.1545 99.9569 45.9156 128.974C39.2644 146.145 37.3323 163.94 38.0785 183.101Z" fill="#2563EB"/>
<path d="M265.034 232.77C262.817 226.018 262.242 219.666 263.805 213.01C264.503 210.036 263.923 206.761 263.923 202.812C203.529 202.812 143.381 202.812 82.9989 202.812C82.9989 212.028 83.2618 221.545 82.7609 231.022C82.6688 232.764 79.5959 235.487 77.6865 235.682C75.6588 235.89 73.1003 233.935 71.317 232.323C70.3133 231.416 70.0734 229.298 70.059 227.721C69.9593 216.751 69.8823 205.778 70.0454 194.81C70.2177 183.229 70.9234 171.652 70.9192 160.074C70.9149 148.268 70.2736 136.464 70.0535 124.656C70.0147 122.579 70.0351 119.992 71.171 118.527C72.6873 116.571 75.3193 114.365 77.4753 114.362C79.296 114.359 82.0014 117.025 82.74 119.077C83.8711 122.218 83.984 125.852 83.9439 129.27C83.7295 147.534 83.3306 165.797 83.0043 184.06C82.9722 185.856 83 187.652 83 189.721C143.335 189.721 203.258 189.721 263.996 189.721C263.996 185.793 263.996 181.715 263.997 177.636C263.998 173.614 263.896 169.589 264.033 165.572C264.165 161.671 267.542 157.536 270.501 158.152C273.925 158.865 277.045 160.597 277.014 164.983C276.983 169.337 276.921 173.692 277.015 178.043C277.307 191.476 277.768 204.905 277.939 218.338C277.99 222.426 277.752 226.632 276.783 230.571C276.291 232.571 274.191 234.819 272.255 235.661C269.678 236.781 266.624 236.445 265.034 232.77Z" fill="#2563EB"/>
<path d="M251 173.965C251 177.094 251 179.732 251 182.68C215.326 182.68 179.981 182.68 144.318 182.68C144.318 170.63 144.318 158.592 144.318 146.211C145.678 146.138 146.958 146.01 148.239 146.009C175.362 145.998 202.487 145.811 229.607 146.096C240.06 146.206 248.206 150.97 250.449 161.11C251.327 165.078 250.856 169.345 251 173.965Z" fill="#2563EB"/>
<path d="M107.018 145.992C112.538 144.069 117.044 145.361 121.116 148.628C127.077 153.41 130.107 159.656 128.77 167.235C127.222 176.01 118.427 183.001 110.124 181.826C100.155 180.416 93.1433 173.154 92.8419 163.184C92.5837 154.641 97.7121 146.969 107.018 145.992Z" fill="#2563EB"/>
</svg>
