<svg width="509" height="513" viewBox="0 0 509 513" fill="none" xmlns="http://www.w3.org/2000/svg">
<path d="M396.278 96C409.009 96 421.218 90.9429 430.22 81.9411C439.221 72.9394 444.278 60.7304 444.278 48C444.278 35.2696 439.221 23.0606 430.22 14.0589C421.218 5.05713 409.009 0 396.278 0C383.548 0 371.339 5.05713 362.337 14.0589C353.336 23.0606 348.278 35.2696 348.278 48C348.278 60.7304 353.336 72.9394 362.337 81.9411C371.339 90.9429 383.548 96 396.278 96ZM311.978 200.5C312.978 200.1 313.878 199.7 314.878 199.3L297.978 262.8C292.378 283.9 297.878 306.4 312.678 322.5L383.378 399.6L405.378 487.7C409.678 504.8 427.078 515.3 444.178 511C461.278 506.7 471.778 489.3 467.478 472.2L444.478 380.1C442.578 372.3 438.678 365.2 433.278 359.3L383.778 305.3L403.078 239.8L412.678 262.8C417.078 273.4 425.178 282.1 435.478 287.3L462.178 300.6C477.978 308.5 497.178 302.1 505.078 286.3C512.978 270.5 506.578 251.3 490.778 243.4L469.278 232.7L453.978 195.9C436.778 154.8 396.578 128 351.978 128C329.178 128 306.678 132.8 285.878 142L277.878 145.5C244.978 160.1 219.778 187.9 208.478 222L205.878 229.8C200.278 246.6 209.378 264.7 226.078 270.3C242.778 275.9 260.978 266.8 266.578 250.1L269.178 242.3C274.878 225.2 287.478 211.4 303.878 204.1L311.878 200.6L311.978 200.5ZM281.978 335.6L256.978 398L197.578 457.4C185.078 469.9 185.078 490.2 197.578 502.7C210.078 515.2 230.378 515.2 242.878 502.7L304.578 441C309.178 436.4 312.778 430.9 315.178 424.9L329.678 388.7L288.978 344.3C286.478 341.6 284.178 338.7 281.978 335.7V335.6ZM220.278 274.1C212.578 269.7 202.878 272.3 198.378 280L166.378 335.4L111.978 304C96.6784 295.2 77.0784 300.4 68.2784 315.7L4.27837 426.6C-4.52163 441.9 0.678369 461.5 15.9784 470.3L71.3784 502.3C86.6784 511.1 106.278 505.9 115.078 490.6L179.078 379.7C180.578 377.1 181.678 374.5 182.378 371.7L226.178 296C230.578 288.3 227.978 278.6 220.278 274.1Z" fill="#4F46E5"/>
</svg>
